<svg width="23" height="23" viewBox="0 0 23 23" fill="none" xmlns="http://www.w3.org/2000/svg">
<path d="M9.26124 9.75655L9.15517 9.65036L9.04905 9.75649L6.28502 12.5205C6.25943 12.5461 6.21593 12.5461 6.19034 12.5205L5.19117 11.5213C5.16557 11.4958 5.16557 11.4523 5.19117 11.4267L9.10913 7.5087C9.13472 7.4831 9.17822 7.4831 9.20381 7.5087L11.5415 9.84909L11.6476 9.95534L11.7537 9.8491L16.7441 4.85328L16.7442 4.85322C16.7698 4.82768 16.8132 4.8277 16.8388 4.85328L17.838 5.85245C17.8636 5.87804 17.8636 5.92154 17.838 5.94713L17.8379 5.94718L11.6936 12.097L11.6936 12.097C11.668 12.1225 11.6245 12.1225 11.599 12.097C11.5989 12.097 11.5989 12.097 11.5989 12.097L9.26124 9.75655Z" fill="#2E2E2E" stroke="white" stroke-width="0.3"/>
<path d="M16.9978 21.5834L16.1759 22.8969L16.9978 21.5834ZM16.9978 21.5834C17.0629 21.4804 17.033 21.3441 16.9354 21.2773M16.9978 21.5834L16.9354 21.2773M16.9354 21.2773L12.4764 18.2773L16.9354 21.2773ZM10.5236 0.204422H10.5704H10.6736H12.4764H22.1321C22.5257 0.204422 22.85 0.531565 22.85 0.944964V16.4878C22.85 16.9012 22.5257 17.2284 22.1321 17.2284H12.4764H12.3264V17.3784V18.2773V18.3571L12.3927 18.4017L16.8507 21.4011C16.8508 21.4011 16.8509 21.4012 16.851 21.4013C16.8822 21.4229 16.8926 21.4691 16.871 21.5032L16.8706 21.5038L16.0488 22.8174L16.0406 22.8304C16.0193 22.8524 15.9852 22.8567 15.9583 22.8391C15.9582 22.839 15.9581 22.8389 15.958 22.8389L11.5838 19.8949L11.5 19.8386L11.4162 19.8949L7.04201 22.8389C7.04192 22.8389 7.04182 22.839 7.04173 22.8391C7.01486 22.8567 6.9807 22.8524 6.95938 22.8304L6.95122 22.8174L6.1294 21.5038L6.12903 21.5032C6.10592 21.4667 6.11759 21.4222 6.14773 21.4021L6.14838 21.4017L10.6182 18.3933L10.6844 18.3488V18.2689V17.3784V17.2284H10.5344H0.867925C0.474311 17.2284 0.15 16.9012 0.15 16.4878V0.944964C0.15 0.531565 0.474311 0.204422 0.867925 0.204422H10.5236ZM21.0472 15.5246H21.1972V15.3746V2.05814V1.90814H21.0472H1.95283H1.80283V2.05814V15.3746V15.5246H1.95283H21.0472Z" fill="#2E2E2E" stroke="white" stroke-width="0.3"/>
</svg>
