<svg width="24" height="22" viewBox="0 0 24 22" fill="none" xmlns="http://www.w3.org/2000/svg">
<path d="M2.87715 1.43858C2.49562 1.43858 2.12971 1.59014 1.85993 1.85993C1.59014 2.12971 1.43858 2.49562 1.43858 2.87715V14.3858C1.43858 14.7673 1.59014 15.1332 1.85993 15.403C2.12971 15.6728 2.49562 15.8243 2.87715 15.8243H16.6673C17.4304 15.8245 18.1621 16.1277 18.7015 16.6673L21.5786 19.5445V2.87715C21.5786 2.49562 21.4271 2.12971 21.1573 1.85993C20.8875 1.59014 20.5216 1.43858 20.1401 1.43858H2.87715ZM20.1401 0C20.9031 0 21.635 0.303128 22.1745 0.842699C22.7141 1.38227 23.0172 2.11408 23.0172 2.87715V21.2809C23.0172 21.4232 22.9749 21.5623 22.8958 21.6806C22.8167 21.7989 22.7042 21.8911 22.5727 21.9454C22.4412 21.9998 22.2965 22.0139 22.1569 21.986C22.0173 21.9581 21.8892 21.8894 21.7887 21.7887L17.6844 17.6844C17.4147 17.4146 17.0489 17.263 16.6673 17.2629H2.87715C2.11408 17.2629 1.38227 16.9598 0.842699 16.4202C0.303128 15.8806 0 15.1488 0 14.3858V2.87715C0 2.11408 0.303128 1.38227 0.842699 0.842699C1.38227 0.303128 2.11408 0 2.87715 0L20.1401 0Z" fill="#2E2E2E"/>
<path d="M7.19307 8.63145C7.19307 9.01298 7.04151 9.37889 6.77172 9.64867C6.50194 9.91846 6.13603 10.07 5.75449 10.07C5.37296 10.07 5.00705 9.91846 4.73727 9.64867C4.46748 9.37889 4.31592 9.01298 4.31592 8.63145C4.31592 8.24991 4.46748 7.88401 4.73727 7.61422C5.00705 7.34444 5.37296 7.19287 5.75449 7.19287C6.13603 7.19287 6.50194 7.34444 6.77172 7.61422C7.04151 7.88401 7.19307 8.24991 7.19307 8.63145ZM12.9474 8.63145C12.9474 9.01298 12.7958 9.37889 12.526 9.64867C12.2562 9.91846 11.8903 10.07 11.5088 10.07C11.1273 10.07 10.7614 9.91846 10.4916 9.64867C10.2218 9.37889 10.0702 9.01298 10.0702 8.63145C10.0702 8.24991 10.2218 7.88401 10.4916 7.61422C10.7614 7.34444 11.1273 7.19287 11.5088 7.19287C11.8903 7.19287 12.2562 7.34444 12.526 7.61422C12.7958 7.88401 12.9474 8.24991 12.9474 8.63145ZM18.7017 8.63145C18.7017 9.01298 18.5501 9.37889 18.2803 9.64867C18.0105 9.91846 17.6446 10.07 17.2631 10.07C16.8816 10.07 16.5157 9.91846 16.2459 9.64867C15.9761 9.37889 15.8245 9.01298 15.8245 8.63145C15.8245 8.24991 15.9761 7.88401 16.2459 7.61422C16.5157 7.34444 16.8816 7.19287 17.2631 7.19287C17.6446 7.19287 18.0105 7.34444 18.2803 7.61422C18.5501 7.88401 18.7017 8.24991 18.7017 8.63145Z" fill="#2E2E2E"/>
</svg>
