<svg width="18" height="23" viewBox="0 0 18 23" fill="none" xmlns="http://www.w3.org/2000/svg">
<path d="M15.05 15.2937V15.5822L15.2533 15.787L17.3 17.848V17.9923H0.7V17.848L2.7467 15.787L2.95 15.5822V15.2937V9.62937C2.95 6.38072 4.6359 3.82791 7.47495 3.15054L8.0125 3.02229V2.46965V1.6993C8.0125 1.14101 8.45744 0.7 9 0.7C9.54256 0.7 9.9875 1.14101 9.9875 1.6993V2.46965V3.02184L10.5245 3.15041C13.3533 3.82769 15.05 6.39267 15.05 9.62937V15.2937ZM10.385 20.5252C10.1283 21.0383 9.59997 21.3909 9 21.3909C8.5905 21.3909 8.19677 21.2271 7.90571 20.934C7.78605 20.8135 7.68778 20.6752 7.61354 20.5252H10.385Z" stroke="#2E2E2E" stroke-width="1.4"/>
</svg>
