<svg width="49" height="43" viewBox="0 0 49 43" fill="none" xmlns="http://www.w3.org/2000/svg">
<path d="M20.832 4.07489L2.57763 34.5491C2.20127 35.2009 2.00212 35.9398 2.00002 36.6925C1.99791 37.4451 2.19291 38.1852 2.56562 38.839C2.93832 39.4929 3.47575 40.0378 4.12442 40.4195C4.77309 40.8012 5.51039 41.0064 6.26298 41.0146H42.7717C43.5243 41.0064 44.2616 40.8012 44.9103 40.4195C45.5589 40.0378 46.0964 39.4929 46.4691 38.839C46.8418 38.1852 47.0368 37.4451 47.0347 36.6925C47.0326 35.9398 46.8334 35.2009 46.4571 34.5491L28.2027 4.07489C27.8185 3.44149 27.2775 2.91781 26.632 2.55437C25.9865 2.19093 25.2582 2 24.5173 2C23.7765 2 23.0482 2.19093 22.4027 2.55437C21.7572 2.91781 21.2162 3.44149 20.832 4.07489V4.07489Z" stroke="#F24B4B" stroke-width="3" stroke-linecap="round" stroke-linejoin="round"/>
<path d="M24.5178 15.1521V23.7728" stroke="#F24B4B" stroke-width="3" stroke-linecap="round" stroke-linejoin="round"/>
<path d="M24.5178 32.3936H24.5394" stroke="#F24B4B" stroke-width="3" stroke-linecap="round" stroke-linejoin="round"/>
</svg>
