<svg width="30" height="19" viewBox="0 0 30 19" fill="none" xmlns="http://www.w3.org/2000/svg">
<path d="M28.4657 4.42876L28.4866 4.4224L28.5061 4.41253C28.7863 4.27022 29.1039 4.28766 29.3508 4.41293C29.5974 4.53809 29.75 4.75583 29.75 5.00517V14.9978C29.75 15.2452 29.5979 15.4623 29.351 15.5873C29.1039 15.7124 28.7863 15.7298 28.5061 15.5875L28.4866 15.5776L28.4657 15.5712L24.18 14.265L23.8571 14.1666V14.5041V17.1157C23.8571 17.9877 23.0393 18.75 21.9643 18.75H2.14286C1.06784 18.75 0.25 17.9877 0.25 17.1157V1.8843C0.25 1.0123 1.06784 0.25 2.14286 0.25H21.9643C23.0393 0.25 23.8571 1.0123 23.8571 1.8843V5.49587V5.83342L24.18 5.73501L28.4657 4.42876ZM21.6964 17.1302H21.9464V16.8802V2.11983V1.86983H21.6964H2.41071H2.16071V2.11983V16.8802V17.1302H2.41071H21.6964ZM27.5269 13.2054L27.8393 13.2859V12.9633V7.03667V6.71385L27.5267 6.79463L24.0446 7.69457L23.8571 7.74302V7.93662V12.0663V12.2601L24.0448 12.3084L27.5269 13.2054ZM8.57143 6.63843H4.82143C4.81361 6.63843 4.80766 6.63684 4.80357 6.63512V5.25744C4.80766 5.25572 4.81361 5.25413 4.82143 5.25413H8.57143C8.57925 5.25413 8.5852 5.25572 8.58929 5.25744V6.63512C8.5852 6.63684 8.57925 6.63843 8.57143 6.63843ZM8.5718 9.22965H4.8218C4.81398 9.22965 4.80803 9.22806 4.80394 9.22634V7.84866C4.80803 7.84694 4.81398 7.84535 4.8218 7.84535H8.5718C8.57962 7.84535 8.58557 7.84694 8.58966 7.84866V9.22633C8.58557 9.22806 8.57962 9.22965 8.5718 9.22965Z" fill="#2E2E2E" stroke="white" stroke-width="0.5"/>
</svg>
