<svg width="21" height="19" viewBox="0 0 21 19" fill="none" xmlns="http://www.w3.org/2000/svg">
<path d="M2.65485 2.32448L2.65488 2.32449L2.65528 2.32297C3.01444 0.976851 4.17653 0.05 5.49653 0.05H15.5035C16.1463 0.050067 16.7718 0.271771 17.2847 0.681859C17.7977 1.09199 18.1701 1.66816 18.3447 2.32296L18.3447 2.32297L18.3451 2.32448L20.8352 10.6059C20.8353 10.6061 20.8353 10.6064 20.8354 10.6066C20.9638 11.0891 20.9846 11.5965 20.8962 12.0889C20.8077 12.5816 20.6123 13.0458 20.3254 13.4451C20.0386 13.8443 19.6681 14.1678 19.2433 14.3902C18.8186 14.6127 18.3509 14.7282 17.877 14.7278H17.8769H3.12307H3.12303C2.64911 14.7282 2.18143 14.6127 1.75665 14.3902C1.33187 14.1678 0.961436 13.8443 0.674584 13.4451C0.387725 13.0458 0.192297 12.5816 0.103806 12.0889C0.0153609 11.5965 0.036178 11.0891 0.1646 10.6067L2.65485 2.32448ZM3.12307 14.7778H17.8769L0.116488 10.593C-0.0140059 11.0828 -0.0351915 11.5979 0.0545936 12.0978C0.144379 12.5977 0.342692 13.0688 0.633978 13.4742C0.925263 13.8797 1.3016 14.2084 1.73346 14.4345C2.16532 14.6607 2.64096 14.7782 3.12307 14.7778ZM4.55877 1.86585C4.29011 2.08078 4.09563 2.3819 4.00425 2.72325L4.00387 2.72319L1.51339 11.0077L1.51336 11.0077L1.51295 11.0093C1.44341 11.2706 1.43217 11.5453 1.48008 11.8119C1.528 12.0785 1.63379 12.33 1.78936 12.5466C1.94493 12.7632 2.1461 12.9391 2.37725 13.0602C2.60842 13.1814 2.86319 13.2445 3.12157 13.2444H17.8784C18.1368 13.2445 18.3916 13.1814 18.6227 13.0602C18.8539 12.9391 19.0551 12.7632 19.2106 12.5466C19.3662 12.33 19.472 12.0785 19.5199 11.8119C19.5678 11.5453 19.5566 11.2706 19.4871 11.0093L19.4871 11.0092L19.4866 11.0077L16.9966 2.72633C16.9965 2.72606 16.9964 2.7258 16.9964 2.72553C16.9052 2.38324 16.7105 2.08126 16.4412 1.86585C16.1717 1.65023 15.8424 1.53328 15.5035 1.53333H5.49654C5.15761 1.53328 4.82828 1.65023 4.55877 1.86585ZM4.75034 17.6829C4.88188 17.5441 5.05969 17.4667 5.24448 17.4667H15.754C15.9388 17.4667 16.1166 17.5441 16.2482 17.6829C16.3798 17.8218 16.4542 18.0108 16.4542 18.2083C16.4542 18.4059 16.3798 18.5948 16.2482 18.7337C16.1166 18.8726 15.9388 18.95 15.754 18.95H5.24448C5.05969 18.95 4.88188 18.8726 4.75034 18.7337C4.61872 18.5948 4.54434 18.4059 4.54434 18.2083C4.54434 18.0108 4.61872 17.8218 4.75034 17.6829Z" fill="#2E2E2E" stroke="white" stroke-width="0.1"/>
</svg>