<svg width="20" height="19" viewBox="0 0 20 19" fill="none" xmlns="http://www.w3.org/2000/svg">
<path d="M17.0606 1H2.9395C1.86998 1 1 1.8188 1 2.82541V12.5612C1 13.5677 1.86998 14.3865 2.9395 14.3865H7.41478L8.89684 17.1764C9.15501 17.6624 9.55711 17.9412 10 17.9412C10.4429 17.9412 10.845 17.6624 11.1032 17.1764L12.5854 14.3865H17.0606C18.13 14.3865 19 13.5677 19 12.5612V2.82541C19 1.8188 18.13 1 17.0606 1V1ZM17.9453 12.5612C17.9453 13.0203 17.5484 13.3939 17.0606 13.3939H12.2595C12.0597 13.3939 11.8772 13.5001 11.7878 13.6683L10.1599 16.7324C10.0942 16.856 10.0325 16.9167 10 16.94C9.96745 16.9167 9.90579 16.856 9.84015 16.7324L8.21225 13.6683C8.12299 13.5001 7.94034 13.3939 7.74066 13.3939H2.9395C2.45157 13.3939 2.05469 13.0203 2.05469 12.5612V2.82541C2.05469 2.36618 2.45157 1.99265 2.9395 1.99265H17.0606C17.5484 1.99265 17.9453 2.36618 17.9453 2.82541V12.5612Z" fill="#858988" stroke="#858988" stroke-width="0.2"/>
</svg>
