<svg width="39" height="22" viewBox="0 0 39 22" fill="none" xmlns="http://www.w3.org/2000/svg">
<path d="M19.2778 20.9997V18.7775C19.2778 17.5987 18.8095 16.4683 17.976 15.6348C17.1425 14.8013 16.0121 14.333 14.8333 14.333H5.94444C4.7657 14.333 3.63524 14.8013 2.80175 15.6348C1.96825 16.4683 1.5 17.5987 1.5 18.7775V20.9997" stroke="#2E2E2E" stroke-width="1.5" stroke-linecap="round" stroke-linejoin="round"/>
<path d="M10.3888 9.88889C12.8434 9.88889 14.8332 7.89904 14.8332 5.44444C14.8332 2.98985 12.8434 1 10.3888 1C7.93418 1 5.94434 2.98985 5.94434 5.44444C5.94434 7.89904 7.93418 9.88889 10.3888 9.88889Z" stroke="#2E2E2E" stroke-width="1.5" stroke-linecap="round" stroke-linejoin="round"/>
<path d="M26 12L32 19L38 12" stroke="#2E2E2E" stroke-width="1.5" stroke-linecap="round" stroke-linejoin="round"/>
</svg>
