<svg width="20" height="20" viewBox="0 0 20 20" fill="none" xmlns="http://www.w3.org/2000/svg">
<path d="M18.4598 13.2371C18.8393 12.7666 19.0213 12.2622 18.998 11.7428C18.9748 11.1706 18.7115 10.7227 18.4946 10.4479C18.7463 9.83814 18.8431 8.87829 18.0029 8.133C17.3872 7.5872 16.3417 7.34253 14.8935 7.41029C13.8751 7.45546 13.0232 7.6399 12.9884 7.64743H12.9845C12.7909 7.6813 12.5856 7.72271 12.3765 7.76788C12.3611 7.52698 12.4037 6.92848 12.8606 5.58093C13.4027 3.97742 13.3717 2.75031 12.7599 1.92974C12.1171 1.06775 11.091 1 10.7889 1C10.4985 1 10.2313 1.11669 10.0416 1.33124C9.61179 1.81681 9.66213 2.71267 9.71634 3.12673C9.20521 4.45922 7.77249 7.72647 6.56049 8.63363C6.53726 8.64868 6.5179 8.6675 6.49854 8.68632C6.14229 9.05144 5.90222 9.44668 5.73958 9.79297C5.51112 9.67252 5.25169 9.60477 4.97289 9.60477H2.61084C1.72023 9.60477 1 10.3087 1 11.1706V17.2873C1 18.1531 1.7241 18.8532 2.61084 18.8532H4.97289C5.31751 18.8532 5.63891 18.7478 5.90222 18.5671L6.81218 18.6725C6.95158 18.6913 9.4298 18.9962 11.9738 18.9473C12.4346 18.9812 12.8683 19 13.271 19C13.9642 19 14.5682 18.9473 15.0716 18.8419C16.2565 18.5972 17.0658 18.1079 17.4762 17.389C17.7899 16.8394 17.7899 16.2936 17.7396 15.9473C18.5101 15.2698 18.6457 14.5207 18.6185 13.9937C18.6031 13.6888 18.5334 13.4291 18.4598 13.2371ZM2.61084 17.8369C2.29719 17.8369 2.0455 17.5885 2.0455 17.2873V11.1669C2.0455 10.862 2.30106 10.6173 2.61084 10.6173H4.97289C5.28653 10.6173 5.53823 10.8657 5.53823 11.1669V17.2836C5.53823 17.5885 5.28266 17.8331 4.97289 17.8331H2.61084V17.8369ZM17.4685 12.7967C17.3059 12.9624 17.2749 13.2146 17.3988 13.4103C17.3988 13.4141 17.5576 13.6775 17.5769 14.0389C17.604 14.532 17.3601 14.9686 16.849 15.3413C16.667 15.4768 16.5934 15.7102 16.6708 15.921C16.6708 15.9247 16.8373 16.4216 16.5663 16.8921C16.3068 17.3438 15.7299 17.6675 14.8548 17.8482C14.1539 17.995 13.2013 18.0213 12.0319 17.931C12.0164 17.931 11.9971 17.931 11.9777 17.931C9.48788 17.9837 6.97095 17.6675 6.94384 17.6637H6.93997L6.54888 17.6186C6.57211 17.5132 6.58372 17.4003 6.58372 17.2873V11.1669C6.58372 11.005 6.55662 10.8469 6.51015 10.7001C6.57985 10.4479 6.77346 9.88708 7.23038 9.40903C8.96901 8.06901 10.6689 3.54831 10.7425 3.35257C10.7735 3.27353 10.7812 3.18695 10.7657 3.10038C10.6999 2.6788 10.7231 2.16311 10.816 2.00878C11.0213 2.01255 11.575 2.06901 11.908 2.51694C12.303 3.04768 12.2875 3.99624 11.8615 5.25345C11.211 7.16938 11.1568 8.17817 11.6718 8.62233C11.9274 8.84442 12.2681 8.85571 12.5159 8.76913C12.7522 8.71644 12.9767 8.67127 13.1897 8.63739C13.2052 8.63363 13.2246 8.62986 13.2401 8.6261C14.4288 8.3739 16.5585 8.21957 17.2981 8.87453C17.9254 9.43162 17.4801 10.1694 17.4298 10.2484C17.2865 10.4592 17.3291 10.734 17.5227 10.9034C17.5266 10.9072 17.9332 11.2798 17.9525 11.7804C17.968 12.1154 17.8054 12.458 17.4685 12.7967Z" fill="#858988" stroke="#858988" stroke-width="0.2"/>
</svg>
