<svg width="20" height="17" viewBox="0 0 20 17" fill="none" xmlns="http://www.w3.org/2000/svg">
<path d="M18.7773 6.3464L11.3241 1.0964C11.1633 0.983105 10.9523 0.968545 10.7772 1.0587C10.6021 1.1489 10.4922 1.32873 10.4922 1.52497V4.16345C8.01411 4.29057 5.70223 5.31187 3.93467 7.07156C2.04221 8.95561 1 11.4606 1 14.125V16.225C1 16.5164 1.23766 16.75 1.52777 16.75C1.75997 16.75 1.96901 16.5971 2.0344 16.3692L2.11558 16.0864C3.19685 12.3187 6.59703 9.63846 10.4922 9.41505V12.025C10.4922 12.2212 10.6021 12.4011 10.7772 12.4912C10.9523 12.5814 11.1632 12.5669 11.3241 12.4535L18.7773 7.20355C18.917 7.10513 19 6.94535 19 6.77497C19 6.60459 18.917 6.44482 18.7773 6.3464ZM11.5469 11.0104V8.87497C11.5469 8.58503 11.3108 8.34997 11.0196 8.34997C9.88776 8.34997 8.7725 8.53295 7.70477 8.89383C5.29318 9.70891 3.30625 11.3707 2.07642 13.5002C2.39954 8.86923 6.28719 5.19997 11.0196 5.19997C11.3108 5.19997 11.5469 4.96491 11.5469 4.67497V2.53955L17.5597 6.77497L11.5469 11.0104Z" fill="#858988" stroke="#858988" stroke-width="0.2"/>
</svg>
