<svg width="25" height="21" viewBox="0 0 25 21" fill="none" xmlns="http://www.w3.org/2000/svg">
<path d="M23.776 3.82991H20.563V0.642595C20.563 0.282751 20.2803 0 19.9204 0H0.642595C0.282751 0 0 0.282751 0 0.642595V16.5018C0 16.8617 0.282751 17.1444 0.642595 17.1444H3.85557V20.3574C3.85557 20.7172 4.13832 21 4.49816 21H23.776C24.1359 21 24.4186 20.7172 24.4186 20.3574V4.47246C24.4186 4.13826 24.1359 3.82987 23.776 3.82987V3.82991ZM23.1334 16.2448L20.3317 13.1604C19.7148 12.4664 18.5067 12.4664 17.8899 13.1604L16.5276 14.6513L12.4149 9.94746C12.0807 9.56198 11.5923 9.35632 11.0783 9.35632C10.5643 9.35632 10.0758 9.58761 9.74165 9.97326L5.11496 15.2682L5.11514 5.11524H23.1078V16.245L23.1334 16.2448ZM1.28519 15.8592V1.28513H19.3035V3.85551H4.49816C4.13832 3.85551 3.85557 4.13826 3.85557 4.4981V15.8592H1.28519ZM5.14076 19.6891V17.1958L10.7185 10.7956C10.847 10.6414 11.0269 10.6414 11.0783 10.6414C11.1554 10.6414 11.3354 10.667 11.4382 10.7956L16.0134 16.0392C16.142 16.1677 16.2962 16.2704 16.5019 16.2704C16.7075 16.2961 16.8617 16.1933 16.9903 16.0648L18.841 14.0343C18.9437 13.9315 19.0466 13.9057 19.1237 13.9057C19.2008 13.9057 19.3037 13.9314 19.4065 14.0343L23.1593 18.147V19.7149H5.14094L5.14076 19.6891Z" fill="#2E2E2E"/>
<path d="M20.8457 8.94497C20.8457 9.79682 20.1552 10.4873 19.3034 10.4873C18.4517 10.4873 17.7612 9.79682 17.7612 8.94497C17.7612 8.0933 18.4517 7.40283 19.3034 7.40283C20.1552 7.40283 20.8457 8.0933 20.8457 8.94497Z" fill="#2E2E2E"/>
</svg>
