<svg width="30" height="30" viewBox="0 0 30 30" fill="none" xmlns="http://www.w3.org/2000/svg">
<circle cx="15" cy="15" r="15" fill="#F3F3F3"/>
<path d="M21.4284 21.9643V20.3571C21.4284 19.5046 21.0898 18.6871 20.487 18.0843C19.8842 17.4815 19.0666 17.1428 18.2141 17.1428H11.7856C10.9331 17.1428 10.1155 17.4815 9.51273 18.0843C8.90994 18.6871 8.57129 19.5046 8.57129 20.3571V21.9643" stroke="#2D2D2D" stroke-width="1.5" stroke-linecap="round" stroke-linejoin="round"/>
<path d="M14.9999 13.9286C16.7751 13.9286 18.2142 12.4895 18.2142 10.7143C18.2142 8.93908 16.7751 7.5 14.9999 7.5C13.2247 7.5 11.7856 8.93908 11.7856 10.7143C11.7856 12.4895 13.2247 13.9286 14.9999 13.9286Z" stroke="#2D2D2D" stroke-width="1.5" stroke-linecap="round" stroke-linejoin="round"/>
</svg>
