<svg width="32" height="32" viewBox="0 0 32 32" fill="none" xmlns="http://www.w3.org/2000/svg">
<circle cx="16" cy="16" r="16" fill="#F3F3F3"/>
<path d="M18.2067 22.2859V20.8672C18.2067 20.1147 17.9078 19.393 17.3756 18.8609C16.8435 18.3287 16.1218 18.0298 15.3693 18.0298H9.69437C8.94184 18.0298 8.22012 18.3287 7.688 18.8609C7.15588 19.393 6.85693 20.1147 6.85693 20.8672V22.2859" stroke="#2E2E2E" stroke-width="1.5" stroke-linecap="round" stroke-linejoin="round"/>
<path d="M12.5318 15.1925C14.0989 15.1925 15.3692 13.9221 15.3692 12.355C15.3692 10.7879 14.0989 9.51758 12.5318 9.51758C10.9647 9.51758 9.69434 10.7879 9.69434 12.355C9.69434 13.9221 10.9647 15.1925 12.5318 15.1925Z" stroke="#2E2E2E" stroke-width="1.5" stroke-linecap="round" stroke-linejoin="round"/>
<path d="M25.143 22.2857V21.1822C25.143 20.5969 24.9105 20.0356 24.4966 19.6217C24.0827 19.2079 23.5214 18.9753 22.9361 18.9753H18.5223C17.937 18.9753 17.3757 19.2079 16.9618 19.6217C16.5479 20.0356 16.3154 20.5969 16.3154 21.1822V22.2857" stroke="#F3F3F3" stroke-width="3" stroke-linecap="round" stroke-linejoin="round"/>
<path d="M20.7293 16.7688C21.9482 16.7688 22.9362 15.7807 22.9362 14.5619C22.9362 13.343 21.9482 12.355 20.7293 12.355C19.5105 12.355 18.5225 13.343 18.5225 14.5619C18.5225 15.7807 19.5105 16.7688 20.7293 16.7688Z" stroke="#F3F3F3" stroke-width="3" stroke-linecap="round" stroke-linejoin="round"/>
<path d="M25.143 22.2857V21.1822C25.143 20.5969 24.9105 20.0356 24.4966 19.6217C24.0827 19.2079 23.5214 18.9753 22.9361 18.9753H18.5223C17.937 18.9753 17.3757 19.2079 16.9618 19.6217C16.5479 20.0356 16.3154 20.5969 16.3154 21.1822V22.2857" stroke="#2E2E2E" stroke-width="1.5" stroke-linecap="round" stroke-linejoin="round"/>
<path d="M20.7293 16.7688C21.9482 16.7688 22.9362 15.7807 22.9362 14.5619C22.9362 13.343 21.9482 12.355 20.7293 12.355C19.5105 12.355 18.5225 13.343 18.5225 14.5619C18.5225 15.7807 19.5105 16.7688 20.7293 16.7688Z" stroke="#2E2E2E" stroke-width="1.5" stroke-linecap="round" stroke-linejoin="round"/>
</svg>
